<mxfile host="Electron" agent="Mozilla/5.0 (Windows NT 10.0; Win64; x64) AppleWebKit/537.36 (KHTML, like Gecko) draw.io/25.0.1 Chrome/128.0.6613.186 Electron/32.2.6 Safari/537.36" version="25.0.1">
  <diagram id="6I0OCvxSQrVGMHxT2VVA" name="Page-1">
    <mxGraphModel dx="2087" dy="1176" grid="1" gridSize="10" guides="1" tooltips="1" connect="1" arrows="1" fold="1" page="1" pageScale="1" pageWidth="850" pageHeight="1100" math="0" shadow="0">
      <root>
        <mxCell id="0" />
        <mxCell id="1" parent="0" />
        <mxCell id="SJAphZUnZRmOgU1WHmHc-28" value="" style="whiteSpace=wrap;html=1;strokeColor=none;strokeWidth=1;fillColor=#f5f5f5;fontSize=14;" vertex="1" parent="1">
          <mxGeometry x="195" y="1130" width="1505" height="240" as="geometry" />
        </mxCell>
        <mxCell id="dKdSaXE48SgPbhcamS2K-30" value="" style="whiteSpace=wrap;html=1;strokeColor=none;strokeWidth=1;fillColor=#f5f5f5;fontSize=14;" parent="1" vertex="1">
          <mxGeometry x="195" y="660" width="1500" height="450" as="geometry" />
        </mxCell>
        <mxCell id="dKdSaXE48SgPbhcamS2K-32" value="" style="whiteSpace=wrap;html=1;strokeColor=none;strokeWidth=1;fillColor=#f5f5f5;fontSize=14;" parent="1" vertex="1">
          <mxGeometry x="200" y="240" width="1500" height="170" as="geometry" />
        </mxCell>
        <mxCell id="dKdSaXE48SgPbhcamS2K-31" value="" style="whiteSpace=wrap;html=1;strokeColor=none;strokeWidth=1;fillColor=#f5f5f5;fontSize=14;" parent="1" vertex="1">
          <mxGeometry x="200" y="440" width="1500" height="210" as="geometry" />
        </mxCell>
        <mxCell id="dKdSaXE48SgPbhcamS2K-33" value="" style="html=1;whiteSpace=wrap;fillColor=#AFFFAF;shape=mxgraph.archimate3.application;appType=node;archiType=square;fontSize=14;verticalAlign=top;" parent="1" vertex="1">
          <mxGeometry x="710" y="1180" width="480" height="145" as="geometry" />
        </mxCell>
        <mxCell id="dKdSaXE48SgPbhcamS2K-35" value="&lt;div&gt;&lt;font style=&quot;font-size: 18px;&quot;&gt;SecurityManager&lt;/font&gt;&lt;/div&gt;&lt;div&gt;&lt;font size=&quot;3&quot;&gt;(Role-Based Access)&lt;/font&gt;&lt;/div&gt;" style="html=1;whiteSpace=wrap;fillColor=#AFFFAF;shape=mxgraph.archimate3.tech;techType=sysSw;fontSize=14;" parent="1" vertex="1">
          <mxGeometry x="810" y="1190" width="230" height="130" as="geometry" />
        </mxCell>
        <mxCell id="dKdSaXE48SgPbhcamS2K-41" style="edgeStyle=elbowEdgeStyle;rounded=1;elbow=vertical;html=1;startSize=10;endArrow=open;endFill=0;endSize=10;jettySize=auto;orthogonalLoop=1;strokeColor=#808080;fontSize=14;exitX=0.5;exitY=1;exitDx=0;exitDy=0;entryX=0.5;entryY=0;entryDx=0;entryDy=0;entryPerimeter=0;" parent="1" source="dKdSaXE48SgPbhcamS2K-53" target="dKdSaXE48SgPbhcamS2K-45" edge="1">
          <mxGeometry relative="1" as="geometry">
            <Array as="points">
              <mxPoint x="968.5" y="640" />
            </Array>
          </mxGeometry>
        </mxCell>
        <mxCell id="SJAphZUnZRmOgU1WHmHc-44" value="&lt;font style=&quot;font-size: 14px;&quot;&gt;Device Control &amp;amp; Payments&lt;/font&gt;" style="edgeLabel;html=1;align=center;verticalAlign=middle;resizable=0;points=[];" vertex="1" connectable="0" parent="dKdSaXE48SgPbhcamS2K-41">
          <mxGeometry x="0.1198" relative="1" as="geometry">
            <mxPoint as="offset" />
          </mxGeometry>
        </mxCell>
        <mxCell id="dKdSaXE48SgPbhcamS2K-44" style="edgeStyle=elbowEdgeStyle;rounded=1;elbow=vertical;html=1;startSize=10;endArrow=open;endFill=0;endSize=10;jettySize=auto;orthogonalLoop=1;strokeColor=#808080;fontSize=14;exitX=0.5;exitY=1;exitDx=0;exitDy=0;entryX=0.475;entryY=0.088;entryDx=0;entryDy=0;entryPerimeter=0;" parent="1" source="dKdSaXE48SgPbhcamS2K-47" target="dKdSaXE48SgPbhcamS2K-45" edge="1">
          <mxGeometry relative="1" as="geometry">
            <Array as="points">
              <mxPoint x="707.5" y="640" />
            </Array>
          </mxGeometry>
        </mxCell>
        <mxCell id="SJAphZUnZRmOgU1WHmHc-43" value="&lt;font style=&quot;font-size: 14px;&quot;&gt;Commands &amp;amp; Analytics Requests&lt;/font&gt;" style="edgeLabel;html=1;align=center;verticalAlign=middle;resizable=0;points=[];" vertex="1" connectable="0" parent="dKdSaXE48SgPbhcamS2K-44">
          <mxGeometry x="-0.1902" y="1" relative="1" as="geometry">
            <mxPoint x="24" as="offset" />
          </mxGeometry>
        </mxCell>
        <mxCell id="dKdSaXE48SgPbhcamS2K-45" value="CityController&lt;div&gt;(Singleton, Command Center)&lt;/div&gt;" style="html=1;whiteSpace=wrap;fillColor=#AFFFAF;shape=mxgraph.archimate3.service;fontSize=14;" parent="1" vertex="1">
          <mxGeometry x="660.5" y="680" width="359" height="50" as="geometry" />
        </mxCell>
        <mxCell id="dKdSaXE48SgPbhcamS2K-46" style="edgeStyle=elbowEdgeStyle;rounded=1;elbow=vertical;html=1;startSize=10;endArrow=open;endFill=0;endSize=10;jettySize=auto;orthogonalLoop=1;strokeColor=#808080;fontSize=14;entryX=0.5;entryY=0;entryDx=0;entryDy=0;" parent="1" target="dKdSaXE48SgPbhcamS2K-47" edge="1">
          <mxGeometry relative="1" as="geometry">
            <mxPoint x="540.5" y="460" as="sourcePoint" />
            <Array as="points">
              <mxPoint x="530" y="350" />
            </Array>
          </mxGeometry>
        </mxCell>
        <mxCell id="SJAphZUnZRmOgU1WHmHc-41" value="&lt;font style=&quot;font-size: 14px;&quot;&gt;Access Control and Analytics&lt;/font&gt;" style="edgeLabel;html=1;align=center;verticalAlign=middle;resizable=0;points=[];" vertex="1" connectable="0" parent="dKdSaXE48SgPbhcamS2K-46">
          <mxGeometry x="0.4506" y="-1" relative="1" as="geometry">
            <mxPoint as="offset" />
          </mxGeometry>
        </mxCell>
        <mxCell id="dKdSaXE48SgPbhcamS2K-47" value="AdminDashboard" style="shape=component;align=center;fillColor=#99ffff;gradientColor=none;fontSize=14;" parent="1" vertex="1">
          <mxGeometry x="447.5" y="500" width="185" height="80" as="geometry" />
        </mxCell>
        <mxCell id="dKdSaXE48SgPbhcamS2K-53" value="ResidentPortal" style="shape=component;align=center;fillColor=#99ffff;gradientColor=none;fontSize=14;" parent="1" vertex="1">
          <mxGeometry x="1087.5" y="500" width="185" height="80" as="geometry" />
        </mxCell>
        <mxCell id="dKdSaXE48SgPbhcamS2K-54" value="&lt;font style=&quot;font-size: 18px;&quot;&gt;Admin&lt;/font&gt;&lt;div&gt;&lt;font size=&quot;3&quot;&gt;(Role-Based Access)&lt;/font&gt;&lt;/div&gt;" style="html=1;whiteSpace=wrap;fillColor=#ffff99;shape=mxgraph.archimate3.application;appType=func;archiType=rounded;fontSize=14;" parent="1" vertex="1">
          <mxGeometry x="465" y="270" width="155" height="75" as="geometry" />
        </mxCell>
        <mxCell id="dKdSaXE48SgPbhcamS2K-57" value="&lt;font style=&quot;font-size: 18px;&quot;&gt;Resident&lt;/font&gt;&lt;div&gt;&lt;font size=&quot;3&quot;&gt;(Limited Acceses)&lt;/font&gt;&lt;/div&gt;" style="html=1;whiteSpace=wrap;fillColor=#ffff99;shape=mxgraph.archimate3.application;appType=proc;archiType=rounded;fontSize=14;" parent="1" vertex="1">
          <mxGeometry x="1105" y="270" width="150" height="75" as="geometry" />
        </mxCell>
        <mxCell id="dKdSaXE48SgPbhcamS2K-61" style="edgeStyle=elbowEdgeStyle;rounded=1;elbow=vertical;html=1;dashed=1;startSize=10;endArrow=block;endFill=0;endSize=10;jettySize=auto;orthogonalLoop=1;strokeColor=#808080;fontSize=14;" parent="1" source="dKdSaXE48SgPbhcamS2K-62" target="dKdSaXE48SgPbhcamS2K-54" edge="1">
          <mxGeometry relative="1" as="geometry" />
        </mxCell>
        <mxCell id="dKdSaXE48SgPbhcamS2K-62" value="" style="html=1;whiteSpace=wrap;fillColor=#ffff99;shape=mxgraph.archimate3.actor;fontSize=14;" parent="1" vertex="1">
          <mxGeometry x="337.5" y="260" width="50" height="95" as="geometry" />
        </mxCell>
        <mxCell id="dKdSaXE48SgPbhcamS2K-63" value="MemCA Diagram" style="text;strokeColor=none;fillColor=none;html=1;fontSize=24;fontStyle=1;verticalAlign=middle;align=center;" parent="1" vertex="1">
          <mxGeometry x="55" y="200" width="1590" height="40" as="geometry" />
        </mxCell>
        <mxCell id="SJAphZUnZRmOgU1WHmHc-2" value="&lt;font style=&quot;font-size: 18px;&quot;&gt;IoT Sensors &lt;/font&gt;&lt;div&gt;&lt;font size=&quot;3&quot;&gt;(Data Collection)&lt;/font&gt;&lt;/div&gt;" style="html=1;whiteSpace=wrap;fillColor=#AFFFAF;shape=mxgraph.archimate3.service;fontSize=14;" vertex="1" parent="1">
          <mxGeometry x="538.5" y="780" width="203.5" height="110" as="geometry" />
        </mxCell>
        <mxCell id="SJAphZUnZRmOgU1WHmHc-3" value="&lt;font style=&quot;font-size: 18px;&quot;&gt;CloudService&lt;/font&gt;" style="html=1;whiteSpace=wrap;fillColor=#AFFFAF;shape=mxgraph.archimate3.service;fontSize=14;" vertex="1" parent="1">
          <mxGeometry x="901.5" y="780" width="203.5" height="110" as="geometry" />
        </mxCell>
        <mxCell id="SJAphZUnZRmOgU1WHmHc-7" value="" style="html=1;whiteSpace=wrap;fillColor=#ffff99;shape=mxgraph.archimate3.actor;fontSize=14;" vertex="1" parent="1">
          <mxGeometry x="1318.5" y="270" width="50" height="95" as="geometry" />
        </mxCell>
        <mxCell id="SJAphZUnZRmOgU1WHmHc-11" style="edgeStyle=elbowEdgeStyle;rounded=1;elbow=vertical;html=1;dashed=1;startSize=10;endArrow=block;endFill=0;endSize=10;jettySize=auto;orthogonalLoop=1;strokeColor=#808080;fontSize=14;" edge="1" parent="1" target="dKdSaXE48SgPbhcamS2K-57">
          <mxGeometry relative="1" as="geometry">
            <mxPoint x="1318.5" y="310" as="sourcePoint" />
            <mxPoint x="475.5" y="318" as="targetPoint" />
          </mxGeometry>
        </mxCell>
        <mxCell id="SJAphZUnZRmOgU1WHmHc-12" style="edgeStyle=elbowEdgeStyle;rounded=1;elbow=vertical;html=1;startSize=10;endArrow=open;endFill=0;endSize=10;jettySize=auto;orthogonalLoop=1;strokeColor=#808080;fontSize=14;exitX=0.5;exitY=1;exitDx=0;exitDy=0;exitPerimeter=0;entryX=0.5;entryY=0;entryDx=0;entryDy=0;entryPerimeter=0;" edge="1" parent="1" source="dKdSaXE48SgPbhcamS2K-45" target="SJAphZUnZRmOgU1WHmHc-3">
          <mxGeometry relative="1" as="geometry">
            <Array as="points">
              <mxPoint x="921.5" y="750" />
            </Array>
            <mxPoint x="793.5" y="780" as="sourcePoint" />
            <mxPoint x="1133.5" y="690" as="targetPoint" />
          </mxGeometry>
        </mxCell>
        <mxCell id="SJAphZUnZRmOgU1WHmHc-13" style="edgeStyle=elbowEdgeStyle;rounded=1;elbow=vertical;html=1;startSize=10;endArrow=open;endFill=0;endSize=10;jettySize=auto;orthogonalLoop=1;strokeColor=#808080;fontSize=14;exitX=0.5;exitY=1;exitDx=0;exitDy=0;exitPerimeter=0;" edge="1" parent="1" source="dKdSaXE48SgPbhcamS2K-45" target="SJAphZUnZRmOgU1WHmHc-2">
          <mxGeometry relative="1" as="geometry">
            <Array as="points" />
            <mxPoint x="850.5" y="730" as="sourcePoint" />
            <mxPoint x="1013.5" y="790" as="targetPoint" />
          </mxGeometry>
        </mxCell>
        <mxCell id="SJAphZUnZRmOgU1WHmHc-14" style="edgeStyle=elbowEdgeStyle;rounded=1;elbow=vertical;html=1;startSize=10;endArrow=open;endFill=0;endSize=10;jettySize=auto;orthogonalLoop=1;strokeColor=#808080;fontSize=14;exitX=0.5;exitY=0;exitDx=0;exitDy=0;exitPerimeter=0;entryX=0.5;entryY=1;entryDx=0;entryDy=0;entryPerimeter=0;" edge="1" parent="1" source="dKdSaXE48SgPbhcamS2K-35" target="SJAphZUnZRmOgU1WHmHc-26">
          <mxGeometry relative="1" as="geometry">
            <Array as="points">
              <mxPoint x="993.5" y="1130" />
            </Array>
            <mxPoint x="945.5" y="930" as="sourcePoint" />
            <mxPoint x="1121.7499999999995" y="910" as="targetPoint" />
          </mxGeometry>
        </mxCell>
        <mxCell id="SJAphZUnZRmOgU1WHmHc-48" value="&lt;font style=&quot;font-size: 14px;&quot;&gt;Secure Data Transmission&lt;/font&gt;" style="edgeLabel;html=1;align=center;verticalAlign=middle;resizable=0;points=[];" vertex="1" connectable="0" parent="SJAphZUnZRmOgU1WHmHc-14">
          <mxGeometry x="0.1377" relative="1" as="geometry">
            <mxPoint x="-27" as="offset" />
          </mxGeometry>
        </mxCell>
        <mxCell id="SJAphZUnZRmOgU1WHmHc-15" style="edgeStyle=elbowEdgeStyle;rounded=1;elbow=vertical;html=1;startSize=10;endArrow=open;endFill=0;endSize=10;jettySize=auto;orthogonalLoop=1;strokeColor=#808080;fontSize=14;" edge="1" parent="1" source="dKdSaXE48SgPbhcamS2K-57" target="dKdSaXE48SgPbhcamS2K-53">
          <mxGeometry relative="1" as="geometry">
            <mxPoint x="550.5" y="470" as="sourcePoint" />
            <mxPoint x="550.5" y="510" as="targetPoint" />
            <Array as="points">
              <mxPoint x="1188.5" y="420" />
            </Array>
          </mxGeometry>
        </mxCell>
        <mxCell id="SJAphZUnZRmOgU1WHmHc-16" value="&lt;font style=&quot;font-size: 18px;&quot;&gt;&lt;b style=&quot;&quot;&gt;GUIs Interfaces&lt;/b&gt;&lt;/font&gt;&lt;div&gt;&lt;font size=&quot;3&quot; style=&quot;&quot;&gt;&lt;b style=&quot;&quot;&gt;(User Interfaces)&lt;/b&gt;&lt;/font&gt;&lt;/div&gt;" style="text;html=1;align=center;verticalAlign=middle;whiteSpace=wrap;rounded=0;" vertex="1" parent="1">
          <mxGeometry x="752.5" y="440" width="175" height="60" as="geometry" />
        </mxCell>
        <mxCell id="SJAphZUnZRmOgU1WHmHc-18" value="&lt;font style=&quot;font-size: 18px;&quot;&gt;&lt;font style=&quot;&quot;&gt;Tier 2&amp;nbsp;&lt;span style=&quot;white-space: pre;&quot;&gt;&#x9;&lt;/span&gt;&lt;/font&gt;User Interfaces (GUIs)&lt;/font&gt;" style="text;html=1;align=center;verticalAlign=middle;whiteSpace=wrap;rounded=0;" vertex="1" parent="1">
          <mxGeometry x="190" y="620" width="300" height="30" as="geometry" />
        </mxCell>
        <mxCell id="SJAphZUnZRmOgU1WHmHc-19" value="&lt;font style=&quot;font-size: 18px;&quot;&gt;&lt;font style=&quot;&quot;&gt;Tier 1&lt;span style=&quot;white-space: pre;&quot;&gt;&#x9;&lt;/span&gt;&lt;/font&gt;&amp;nbsp;Actors and User Access&lt;/font&gt;" style="text;html=1;align=center;verticalAlign=middle;whiteSpace=wrap;rounded=0;" vertex="1" parent="1">
          <mxGeometry x="190" y="380" width="300" height="30" as="geometry" />
        </mxCell>
        <mxCell id="SJAphZUnZRmOgU1WHmHc-20" value="&lt;font style=&quot;font-size: 18px;&quot;&gt;DailyRoutine&lt;/font&gt;" style="html=1;whiteSpace=wrap;fillColor=#AFFFAF;shape=mxgraph.archimate3.service;fontSize=14;" vertex="1" parent="1">
          <mxGeometry x="302.5" y="780" width="203.5" height="110" as="geometry" />
        </mxCell>
        <mxCell id="SJAphZUnZRmOgU1WHmHc-21" style="edgeStyle=elbowEdgeStyle;rounded=1;elbow=vertical;html=1;startSize=10;endArrow=open;endFill=0;endSize=10;jettySize=auto;orthogonalLoop=1;strokeColor=#808080;fontSize=14;" edge="1" parent="1" target="SJAphZUnZRmOgU1WHmHc-20" source="dKdSaXE48SgPbhcamS2K-45">
          <mxGeometry relative="1" as="geometry">
            <Array as="points" />
            <mxPoint x="604" y="720" as="sourcePoint" />
            <mxPoint x="777.5" y="790" as="targetPoint" />
          </mxGeometry>
        </mxCell>
        <mxCell id="SJAphZUnZRmOgU1WHmHc-45" value="&lt;font style=&quot;font-size: 12px;&quot;&gt;Control Commands&lt;/font&gt;" style="edgeLabel;html=1;align=center;verticalAlign=middle;resizable=0;points=[];" vertex="1" connectable="0" parent="SJAphZUnZRmOgU1WHmHc-21">
          <mxGeometry x="-0.4155" y="2" relative="1" as="geometry">
            <mxPoint as="offset" />
          </mxGeometry>
        </mxCell>
        <mxCell id="SJAphZUnZRmOgU1WHmHc-23" value="&lt;font style=&quot;font-size: 18px;&quot;&gt;AnalyticsStrategy&lt;/font&gt;" style="html=1;whiteSpace=wrap;fillColor=#AFFFAF;shape=mxgraph.archimate3.service;fontSize=14;" vertex="1" parent="1">
          <mxGeometry x="1141.5" y="780" width="203.5" height="110" as="geometry" />
        </mxCell>
        <mxCell id="SJAphZUnZRmOgU1WHmHc-24" style="edgeStyle=elbowEdgeStyle;rounded=1;elbow=vertical;html=1;startSize=10;endArrow=open;endFill=0;endSize=10;jettySize=auto;orthogonalLoop=1;strokeColor=#808080;fontSize=14;entryX=0.5;entryY=0;entryDx=0;entryDy=0;entryPerimeter=0;exitX=0.5;exitY=1;exitDx=0;exitDy=0;exitPerimeter=0;" edge="1" parent="1" target="SJAphZUnZRmOgU1WHmHc-23" source="dKdSaXE48SgPbhcamS2K-45">
          <mxGeometry relative="1" as="geometry">
            <Array as="points">
              <mxPoint x="1161.5" y="750" />
            </Array>
            <mxPoint x="850" y="730" as="sourcePoint" />
            <mxPoint x="1373.5" y="690" as="targetPoint" />
          </mxGeometry>
        </mxCell>
        <mxCell id="SJAphZUnZRmOgU1WHmHc-25" value="&lt;font style=&quot;font-size: 18px;&quot;&gt;Tier 3&lt;span style=&quot;white-space: pre;&quot;&gt;&#x9;&lt;/span&gt;&amp;nbsp; Core Infrastructure&lt;span style=&quot;white-space: pre;&quot;&gt;&#x9;&lt;/span&gt;&lt;/font&gt;" style="text;html=1;align=center;verticalAlign=middle;whiteSpace=wrap;rounded=0;" vertex="1" parent="1">
          <mxGeometry x="190" y="1080" width="300" height="30" as="geometry" />
        </mxCell>
        <mxCell id="SJAphZUnZRmOgU1WHmHc-26" value="&lt;font style=&quot;font-size: 18px;&quot;&gt;Hybrid-Cloud  &lt;/font&gt;&lt;div&gt;&lt;font size=&quot;3&quot;&gt;(Data Storage &amp;amp; Analytics)&lt;/font&gt;&lt;/div&gt;" style="html=1;whiteSpace=wrap;fillColor=#AFFFAF;shape=mxgraph.archimate3.service;fontSize=14;" vertex="1" parent="1">
          <mxGeometry x="1020" y="940" width="203.5" height="110" as="geometry" />
        </mxCell>
        <mxCell id="SJAphZUnZRmOgU1WHmHc-27" value="&lt;font style=&quot;font-size: 18px;&quot;&gt;RealCloudService&lt;/font&gt;" style="html=1;whiteSpace=wrap;fillColor=#AFFFAF;shape=mxgraph.archimate3.service;fontSize=14;" vertex="1" parent="1">
          <mxGeometry x="790" y="940" width="203.5" height="110" as="geometry" />
        </mxCell>
        <mxCell id="SJAphZUnZRmOgU1WHmHc-29" value="&lt;font style=&quot;font-size: 18px;&quot;&gt;Tier 4&lt;span style=&quot;white-space: pre;&quot;&gt;&#x9;&lt;/span&gt;&amp;nbsp;Backend Services and Security&lt;/font&gt;" style="text;html=1;align=center;verticalAlign=middle;whiteSpace=wrap;rounded=0;" vertex="1" parent="1">
          <mxGeometry x="180" y="1340" width="380" height="30" as="geometry" />
        </mxCell>
        <mxCell id="SJAphZUnZRmOgU1WHmHc-33" style="edgeStyle=orthogonalEdgeStyle;rounded=0;orthogonalLoop=1;jettySize=auto;html=1;exitX=0.5;exitY=1;exitDx=0;exitDy=0;" edge="1" parent="1" source="SJAphZUnZRmOgU1WHmHc-28" target="SJAphZUnZRmOgU1WHmHc-28">
          <mxGeometry relative="1" as="geometry" />
        </mxCell>
        <mxCell id="SJAphZUnZRmOgU1WHmHc-35" style="edgeStyle=orthogonalEdgeStyle;rounded=1;html=1;startSize=10;endArrow=open;endFill=0;endSize=10;jettySize=auto;orthogonalLoop=1;strokeColor=#808080;fontSize=14;" edge="1" parent="1">
          <mxGeometry relative="1" as="geometry">
            <Array as="points">
              <mxPoint x="840" y="880" />
              <mxPoint x="750" y="880" />
              <mxPoint x="750" y="1130" />
              <mxPoint x="920" y="1130" />
            </Array>
            <mxPoint x="840" y="720" as="sourcePoint" />
            <mxPoint x="920" y="1190" as="targetPoint" />
          </mxGeometry>
        </mxCell>
        <mxCell id="SJAphZUnZRmOgU1WHmHc-47" value="&lt;font style=&quot;font-size: 14px;&quot;&gt;Authentication &amp;amp; Encryption&lt;/font&gt;" style="edgeLabel;html=1;align=center;verticalAlign=middle;resizable=0;points=[];" vertex="1" connectable="0" parent="SJAphZUnZRmOgU1WHmHc-35">
          <mxGeometry x="0.2344" y="2" relative="1" as="geometry">
            <mxPoint as="offset" />
          </mxGeometry>
        </mxCell>
        <mxCell id="SJAphZUnZRmOgU1WHmHc-36" value="&lt;font style=&quot;font-size: 18px;&quot;&gt;CyroptoPaymentAdapter&lt;/font&gt;&lt;div&gt;&lt;font size=&quot;3&quot;&gt;(Adapter Pattern)&lt;/font&gt;&lt;/div&gt;" style="html=1;whiteSpace=wrap;fillColor=#AFFFAF;shape=mxgraph.archimate3.service;fontSize=14;" vertex="1" parent="1">
          <mxGeometry x="1392.5" y="780" width="203.5" height="110" as="geometry" />
        </mxCell>
        <mxCell id="SJAphZUnZRmOgU1WHmHc-37" style="edgeStyle=elbowEdgeStyle;rounded=1;elbow=vertical;html=1;startSize=10;endArrow=open;endFill=0;endSize=10;jettySize=auto;orthogonalLoop=1;strokeColor=#808080;fontSize=14;entryX=0.5;entryY=0;entryDx=0;entryDy=0;entryPerimeter=0;" edge="1" parent="1" target="SJAphZUnZRmOgU1WHmHc-36">
          <mxGeometry relative="1" as="geometry">
            <Array as="points">
              <mxPoint x="1412.5" y="750" />
            </Array>
            <mxPoint x="840" y="720" as="sourcePoint" />
            <mxPoint x="1624.5" y="690" as="targetPoint" />
          </mxGeometry>
        </mxCell>
        <mxCell id="SJAphZUnZRmOgU1WHmHc-46" value="&lt;font style=&quot;font-size: 12px;&quot;&gt;Send Data for Storage/Analytics&lt;/font&gt;" style="edgeLabel;html=1;align=center;verticalAlign=middle;resizable=0;points=[];" vertex="1" connectable="0" parent="SJAphZUnZRmOgU1WHmHc-37">
          <mxGeometry x="-0.6643" relative="1" as="geometry">
            <mxPoint as="offset" />
          </mxGeometry>
        </mxCell>
        <mxCell id="SJAphZUnZRmOgU1WHmHc-39" value="&lt;span style=&quot;font-size: 18px;&quot;&gt;&lt;b&gt;Actors&lt;/b&gt;&lt;/span&gt;" style="text;html=1;align=center;verticalAlign=middle;whiteSpace=wrap;rounded=0;" vertex="1" parent="1">
          <mxGeometry x="752.5" y="240" width="175" height="60" as="geometry" />
        </mxCell>
        <mxCell id="SJAphZUnZRmOgU1WHmHc-40" style="edgeStyle=elbowEdgeStyle;rounded=1;elbow=vertical;html=1;startSize=10;endArrow=open;endFill=0;endSize=10;jettySize=auto;orthogonalLoop=1;strokeColor=#808080;fontSize=14;" edge="1" parent="1" target="SJAphZUnZRmOgU1WHmHc-36">
          <mxGeometry relative="1" as="geometry">
            <Array as="points">
              <mxPoint x="1340" y="710" />
            </Array>
            <mxPoint x="1180" y="590" as="sourcePoint" />
            <mxPoint x="993.5" y="690" as="targetPoint" />
          </mxGeometry>
        </mxCell>
        <mxCell id="SJAphZUnZRmOgU1WHmHc-42" value="&lt;font style=&quot;font-size: 14px;&quot;&gt;Access Utilities and Payments&lt;/font&gt;" style="text;html=1;align=center;verticalAlign=middle;resizable=0;points=[];autosize=1;strokeColor=none;fillColor=none;" vertex="1" parent="1">
          <mxGeometry x="1080" y="410" width="210" height="30" as="geometry" />
        </mxCell>
      </root>
    </mxGraphModel>
  </diagram>
</mxfile>
